<svg width="256" height="256" viewBox="0 0 256 256" fill="none" xmlns="http://www.w3.org/2000/svg">
<rect width="256" height="256" rx="13" fill="white"/>
<path d="M98.2958 176.716C95.8173 176.579 92.8339 176.625 89.5293 177.084C85.8575 177.543 82.6446 178.323 80.0743 179.149C80.8546 181.123 82.5528 184.657 86.1787 187.502C88.0606 188.971 91.5029 191.725 94.3027 190.807C97.5614 189.706 99.5809 183.968 98.2958 176.716Z" fill="#6B2D17"/>
<path d="M102.013 182.363C98.8919 142.646 95.7555 102.929 92.6039 63.2119C93.5218 102.929 94.4245 142.646 95.3119 182.363C97.5456 182.363 99.7792 182.363 102.013 182.363Z" fill="#87462F"/>
<path d="M127.028 131.783C108.24 133.007 89.468 134.215 70.7111 135.409C70.8335 136.143 70.9558 136.862 71.0782 137.566C89.7433 136.372 108.393 135.164 127.028 133.94C127.028 133.236 127.028 132.517 127.028 131.783Z" fill="#87462F"/>
<path d="M71.5832 139.172C72.5929 138.3 72.5929 136.739 72.5929 136.648C72.547 135.454 71.8586 134.261 70.9406 133.756C68.5998 132.425 64.2854 135.362 64.5149 137.29C64.7444 139.126 69.5637 140.916 71.5832 139.172Z" fill="#87462F"/>
<path d="M122.896 131.507C123.676 133.481 124.365 135.638 124.916 137.979C127.394 147.939 126.614 156.843 125.329 163.177C123.187 162.779 120.968 162.442 118.674 162.167C101.187 160.285 85.9943 164.646 74.9789 169.465C75.9886 165.977 76.8607 161.662 77.1361 156.613C77.5491 147.296 75.5296 139.677 73.7855 134.858C75.0095 134.797 76.2181 134.72 77.4115 134.628C77.5492 134.904 79.4309 137.704 82.8733 137.749C85.4436 137.841 87.8303 136.327 89.0236 133.94C90.2628 134.766 94.4854 137.29 100.314 136.786C105.547 136.281 108.989 133.665 110.182 132.609C113.808 135.409 117.526 135.959 119.087 134.445C119.408 134.123 119.913 133.481 120.005 132.104C120.953 131.92 121.917 131.722 122.896 131.507Z" fill="#1A412C"/>
<path d="M119.913 103.326C105.043 104.306 90.1717 105.269 75.3008 106.218C75.4232 106.769 75.5303 107.335 75.6221 107.916C90.4012 106.968 105.165 106.004 119.913 105.025C119.913 104.474 119.913 103.908 119.913 103.326Z" fill="#87462F"/>
<path d="M75.9892 109.202C76.8154 108.467 76.8154 107.274 76.8154 107.182C76.7695 106.218 76.2646 105.3 75.5303 104.887C73.6485 103.832 70.252 106.173 70.4356 107.687C70.6192 109.156 74.4287 110.579 75.9892 109.202Z" fill="#87462F"/>
<path d="M116.609 103.143C117.205 104.704 117.756 106.402 118.215 108.238C120.189 116.132 119.546 123.155 118.536 128.203C116.853 127.867 115.094 127.591 113.258 127.377C99.4428 125.908 87.4176 129.351 78.7429 133.114C79.5232 130.406 80.2116 126.964 80.3952 123.017C80.7624 115.581 79.156 109.569 77.7791 105.759C78.7276 105.698 79.6762 105.637 80.6247 105.576C80.7624 105.805 82.2311 108.008 84.9391 108.054C86.9586 108.1 88.8863 106.953 89.8043 105.025C90.814 105.713 94.1646 107.687 98.7544 107.274C102.885 106.907 105.639 104.795 106.557 104.015C109.449 106.218 112.34 106.631 113.579 105.438C113.855 105.208 114.268 104.704 114.314 103.602C115.079 103.449 115.844 103.296 116.609 103.143Z" fill="#1A412C"/>
<path d="M125.283 174.743C121.918 131.844 118.536 88.9297 115.14 46C116.089 88.9297 117.052 131.844 118.032 174.743C120.449 174.743 122.866 174.743 125.283 174.743Z" fill="#B05D3E"/>
<path d="M152.318 120.125C132.031 121.411 111.744 122.711 91.457 124.027C91.61 124.792 91.7477 125.572 91.8701 126.368C112.035 125.052 132.184 123.736 152.318 122.42C152.318 121.655 152.318 120.89 152.318 120.125Z" fill="#B05D3E"/>
<path d="M157.32 121.226C157.366 122.879 154.658 124.852 152.409 124.164C151.353 123.842 150.068 122.787 150.022 121.364C150.022 120.079 150.986 119.023 151.904 118.61C154.061 117.646 157.274 119.482 157.32 121.226Z" fill="#B05D3E"/>
<path d="M92.4204 128.111C93.476 127.147 93.476 125.494 93.476 125.357C93.476 124.072 92.7416 122.786 91.7319 122.236C89.2075 120.813 84.526 123.98 84.7554 126.045C85.0308 128.065 90.2173 129.992 92.4204 128.111Z" fill="#B05D3E"/>
<path d="M147.865 119.803C148.691 121.961 149.426 124.256 150.022 126.78C152.684 137.566 151.858 147.204 150.481 154.043C148.156 153.584 145.754 153.217 143.275 152.942C124.365 150.922 107.98 155.604 96.0924 160.79C97.1939 157.072 98.1578 152.391 98.3873 146.929C98.8463 136.832 96.6891 128.616 94.8073 123.429C96.0924 123.338 97.3928 123.261 98.7086 123.2C98.8922 123.429 100.912 126.505 104.583 126.55C107.383 126.642 109.999 125.036 111.239 122.42C112.616 123.338 117.159 126.046 123.447 125.495C129.093 124.99 132.811 122.098 134.142 120.997C138.043 124.026 142.036 124.577 143.734 122.97C144.056 122.649 144.606 121.961 144.698 120.492C145.739 120.247 146.794 120.018 147.865 119.803Z" fill="#008940"/>
<path d="M147.865 119.803C148.691 121.961 148.104 120.456 150.022 126.78C151.941 133.103 149.772 131.657 149.772 131.657L138.925 135.996C138.925 135.996 126.633 138.888 119.402 138.165C112.171 137.442 102.77 135.273 102.77 135.273L97.7087 134.55C97.7087 134.55 96.6891 128.616 94.8073 123.429C96.0924 123.338 97.3928 123.261 98.7086 123.2C98.8922 123.429 100.912 126.505 104.583 126.55C107.383 126.642 109.999 125.036 111.239 122.42C112.616 123.338 117.159 126.046 123.447 125.495C129.093 124.99 132.811 122.098 134.142 120.997C138.043 124.026 142.036 124.577 143.734 122.97C144.056 122.649 144.606 121.961 144.698 120.492C145.739 120.247 146.794 120.018 147.865 119.803Z" fill="#005989"/>
<path d="M144.606 89.373C128.542 90.4134 112.493 91.4537 96.4594 92.4941C96.5817 93.1061 96.6888 93.718 96.7806 94.33C112.722 93.2897 128.664 92.2493 144.606 91.209C144.606 90.597 144.606 89.985 144.606 89.373Z" fill="#B05D3E"/>
<path d="M148.554 90.2919C148.6 91.577 146.442 93.1375 144.698 92.5868C143.826 92.3573 142.817 91.4852 142.817 90.3378C142.771 89.328 143.551 88.5478 144.285 88.1806C145.983 87.4003 148.554 88.869 148.554 90.2919Z" fill="#B05D3E"/>
<path d="M97.1934 95.7067C98.0655 94.9264 98.0655 93.6413 98.0655 93.5495C98.0196 92.4938 97.4688 91.4841 96.6885 91.0251C94.669 89.9236 90.9513 92.448 91.1808 94.0544C91.3644 95.6608 95.4952 97.1754 97.1934 95.7067Z" fill="#B05D3E"/>
<path d="M141.072 89.144C141.715 90.8423 142.312 92.6782 142.816 94.6518C144.882 103.189 144.239 110.808 143.138 116.224C141.332 115.857 139.435 115.566 137.446 115.352C122.484 113.745 109.495 117.463 100.131 121.548C100.958 118.61 101.738 114.893 101.921 110.624C102.289 102.638 100.59 96.1205 99.0758 91.9897C100.116 91.9285 101.157 91.8673 102.197 91.8061C102.335 92.0356 103.941 94.4223 106.833 94.5141C109.036 94.56 111.101 93.2748 112.111 91.2094C113.212 91.9438 116.792 94.0551 121.749 93.642C126.201 93.2289 129.185 90.98 130.195 90.1079C133.316 92.4946 136.483 92.9077 137.814 91.6684C138.043 91.393 138.502 90.8423 138.594 89.6489C139.42 89.4959 140.246 89.3276 141.072 89.144Z" fill="#005989"/>
<path d="M127.716 82.9937C127.716 83.7281 124.916 84.3248 122.667 84.8296C114.13 86.7573 105.18 85.3804 105.134 84.0953C105.134 83.2232 108.989 82.4429 111.009 82.0299C119.179 80.3316 127.67 81.7545 127.716 82.9937Z" fill="#B05D3E"/>
<path d="M126.844 82.9937C125.987 79.9339 125.146 76.8893 124.32 73.8601C122.805 73.1716 120.51 72.3913 117.664 72.2077C113.12 71.8865 109.54 73.2175 107.75 74.0437C107.322 77.3177 106.894 80.5917 106.465 83.8658C113.258 83.5598 120.051 83.2691 126.844 82.9937Z" fill="#B05D3E"/>
<path d="M126.135 152.145C126.107 152.42 126.308 152.665 126.583 152.692C126.858 152.719 127.103 152.518 127.13 152.243L126.135 152.145ZM97.5667 134.307C108.843 137.64 117.465 139.175 125.702 138.737C133.944 138.298 141.759 135.885 151.428 131.389L151.007 130.482C141.401 134.949 133.716 137.309 125.649 137.738C117.577 138.168 109.081 136.667 97.8501 133.348L97.5667 134.307ZM127.13 152.243C128.169 141.752 127.491 135.5 124.217 125.002L123.262 125.299C126.498 135.677 127.16 141.793 126.135 152.145L127.13 152.243Z" fill="white"/>
<path d="M116.379 59.6771C114.36 60.9622 111.56 62.2933 108.944 61.4212C106.786 60.6869 106.282 58.9427 105.088 57.7035C98.938 51.5532 81.0378 66.011 68.6913 59.7689C67.3144 59.1263 65.1113 57.7035 63 54.6742C65.2949 54.7201 68.8749 54.7201 73.2352 54.4448C84.2048 53.8022 85.0309 52.4253 90.7682 52.9301C98.5708 53.6186 100.223 56.5102 105.685 55.5463C110.229 54.7201 113.533 51.9663 115.737 49.6714C115.951 53.0066 116.165 56.3419 116.379 59.6771Z" fill="#005989"/>
<path d="M127.211 169.924C122.407 169.741 117.603 169.557 112.799 169.374C104.476 172.495 96.1535 175.631 87.8307 178.783C88.1061 179.517 88.3968 180.251 88.7028 180.986C89.6513 180.833 90.6152 180.68 91.5943 180.527C92.5123 184.321 93.4302 188.1 94.3482 191.863C97.2856 192.231 104.262 192.69 111.652 188.972C123.08 183.235 126.568 171.99 127.211 169.924Z" fill="#85371C"/>
<path d="M122.713 173.32C119.714 173.167 116.7 173.03 113.671 172.907C106.848 175.386 100.024 177.879 93.2008 180.389C93.6598 182.408 94.1341 184.412 94.6237 186.401C95.5722 186.248 96.5055 186.095 97.4234 185.942C97.148 184.688 96.8573 183.418 96.5513 182.133C97.5305 181.888 98.5249 181.643 99.5347 181.398C99.8101 182.561 100.101 183.724 100.407 184.887C101.57 184.672 102.717 184.443 103.849 184.198C103.513 182.974 103.161 181.75 102.793 180.526C104.14 180.037 105.486 179.562 106.832 179.103C107.108 180.266 107.399 181.429 107.705 182.592C108.684 182.286 109.663 181.995 110.642 181.72C110.336 180.526 110.045 179.318 109.77 178.094C111.177 177.665 112.585 177.237 113.993 176.809C115.675 176.931 117.343 177.038 118.995 177.13C120.25 175.875 121.489 174.605 122.713 173.32Z" fill="#522211"/>
<path d="M171.502 168.869C171.135 172.128 170.401 175.845 169.116 179.747C164.342 194.067 154.612 202.925 149.058 207.194C131.984 207.194 114.91 207.194 97.8364 207.194C95.0367 205.725 91.273 203.292 87.8307 199.345C80.4411 191.038 79.2019 181.537 78.8806 177.773C79.8904 177.406 80.9154 177.039 81.9558 176.672C82.6442 178.416 83.654 180.527 85.2145 182.776C86.9128 185.3 88.7486 187.136 90.2174 188.467C93.522 189.064 99.0298 189.523 104.813 187.136C109.494 185.209 112.294 182.271 116.379 178.003C118.904 175.295 122.392 171.21 125.742 165.564C126.844 164.738 142.449 152.851 158.881 159.276C165.214 161.755 169.299 166.023 171.502 168.869Z" fill="#B05D3E"/>
<g opacity="0.5">
<path d="M168.52 180.389C167.189 178.231 165.49 176.35 163.517 174.743C161.543 173.183 159.34 171.943 156.953 171.117L157.091 171.163C153.649 171.163 150.252 171.53 146.948 172.265C145.249 172.632 143.597 173.137 141.991 173.687C140.384 174.238 138.824 175.018 137.355 175.845C135.886 176.717 134.463 177.681 133.086 178.736L129.047 181.949C127.671 183.02 126.263 184.03 124.825 184.978C123.387 185.957 121.918 186.86 120.419 187.686C118.904 188.558 117.343 189.339 115.829 190.119C114.268 190.853 112.708 191.588 111.101 192.276C107.889 193.561 104.446 194.433 100.912 194.617C99.168 194.709 97.4238 194.617 95.7256 194.387C93.9815 194.143 92.2833 193.76 90.631 193.24C87.2804 192.184 84.1594 190.578 81.3596 188.558L81.4055 188.467C84.343 190.302 87.5099 191.725 90.7687 192.643C92.421 193.102 94.1192 193.469 95.7715 193.607C97.4698 193.837 99.168 193.837 100.866 193.745C104.263 193.561 107.567 192.643 110.734 191.404C112.341 190.807 113.901 190.119 115.462 189.339C116.976 188.604 118.537 187.824 120.051 187.044C121.566 186.263 123.081 185.391 124.504 184.519C125.972 183.601 127.41 182.638 128.818 181.628C131.572 179.608 134.234 177.405 137.171 175.569C138.686 174.697 140.201 173.871 141.853 173.228C143.444 172.586 145.081 172.05 146.764 171.622C148.462 171.163 150.16 170.888 151.905 170.658C153.603 170.475 155.347 170.429 157.091 170.429H157.137L157.229 170.475C159.661 171.347 161.91 172.678 163.884 174.376C165.812 176.028 167.418 178.094 168.611 180.343L168.52 180.389Z" fill="#522211"/>
</g>
<g opacity="0.5">
<path d="M162.736 191.725C161.772 190.303 160.624 188.972 159.339 187.916C158.008 186.814 156.494 185.988 154.933 185.346L155.071 185.392C152.179 185.713 149.288 186.218 146.442 186.86C145.019 187.182 143.596 187.503 142.174 187.916C140.797 188.329 139.374 188.742 137.997 189.247C136.666 189.752 135.289 190.349 134.004 191.037C132.673 191.68 131.433 192.46 130.148 193.148C127.624 194.663 124.962 196.04 122.208 197.096C119.454 198.151 116.654 199.115 113.809 199.849C110.917 200.584 107.98 200.997 104.996 201.18C103.528 201.272 102.059 201.226 100.544 201.18C99.8099 201.119 99.0755 201.058 98.3412 200.997C97.6068 200.905 96.8724 200.813 96.1381 200.721C93.2006 200.217 90.3549 199.39 87.647 198.289V198.197C90.4467 199.115 93.3383 199.712 96.2299 200.079L98.433 200.308C99.1367 200.339 99.8558 200.37 100.59 200.4C102.059 200.431 103.512 200.4 104.95 200.308C107.888 200.125 110.734 199.62 113.579 198.977C116.425 198.289 119.225 197.417 121.979 196.407C123.355 195.948 124.687 195.397 126.063 194.801C127.394 194.25 128.68 193.561 129.965 192.873C131.296 192.184 132.535 191.45 133.866 190.808C135.151 190.073 136.528 189.476 137.859 188.926C139.236 188.329 140.659 187.824 142.036 187.365C143.413 186.906 144.836 186.493 146.304 186.126C147.727 185.805 149.15 185.483 150.619 185.254C152.087 185.04 153.556 184.856 155.025 184.703H155.117H155.163C156.815 185.392 158.33 186.355 159.615 187.549C160.946 188.742 162.001 190.165 162.782 191.68L162.736 191.725Z" fill="#522211"/>
</g>
<g opacity="0.5">
<path d="M155.3 200.63C153.801 199.59 152.302 198.534 150.802 197.463L151.078 197.509C148.875 198.335 146.58 199.024 144.331 199.712C142.036 200.385 139.726 200.936 137.4 201.364L130.424 202.741L126.935 203.384L123.447 204.027C122.254 204.21 121.106 204.394 119.913 204.531C118.72 204.684 117.542 204.807 116.379 204.899C114.023 205.143 111.651 205.296 109.265 205.358C108.071 205.388 106.878 205.403 105.685 205.403C104.537 205.403 103.344 205.358 102.151 205.358C100.957 205.266 99.7638 205.22 98.6164 205.174C97.4231 205.082 96.2297 204.944 95.0364 204.853L95.0823 204.761C97.4384 204.761 99.7944 204.746 102.151 204.715C104.537 204.669 106.878 204.577 109.219 204.485L112.753 204.256C113.946 204.21 115.14 204.164 116.287 204.027C117.48 203.965 118.658 203.874 119.821 203.751C121.015 203.659 122.162 203.522 123.355 203.384C124.503 203.246 125.696 203.109 126.844 202.971C128.037 202.787 129.23 202.65 130.378 202.466C131.525 202.236 132.718 202.053 133.866 201.778L135.564 201.364L137.308 200.905C138.44 200.599 139.573 200.278 140.705 199.942L144.101 198.978C146.396 198.381 148.645 197.647 150.894 196.958L151.032 196.912L151.169 197.004C152.577 198.167 153.984 199.345 155.392 200.538L155.3 200.63Z" fill="#522211"/>
</g>
<path d="M130.791 180.48C130.791 183.968 129.414 186.768 127.67 186.768C125.926 186.768 124.549 183.968 124.549 180.48C124.549 176.992 125.926 174.146 127.67 174.146C129.414 174.146 130.791 176.992 130.791 180.48Z" fill="#85371C"/>
<path d="M128.909 181.353C128.909 183.143 128.083 184.612 127.119 184.612C126.109 184.612 125.283 183.143 125.283 181.353C125.283 179.517 126.109 178.048 127.119 178.048C128.083 178.048 128.909 179.517 128.909 181.353Z" fill="#522211"/>
<path d="M145.341 206.964C147.911 204.302 150.894 200.63 153.419 195.857C159.202 184.933 159.385 174.468 159.064 169.052C161.175 166.727 163.287 164.401 165.398 162.076C165.122 161.158 163.791 157.303 159.936 155.329C155.713 153.172 150.16 154.181 146.213 157.945C148.63 161.647 151.032 165.35 153.419 169.052C153.281 173.459 152.684 179.012 151.032 185.208C148.37 194.847 144.101 202.099 140.751 206.78C142.281 206.842 143.811 206.903 145.341 206.964Z" fill="#522211"/>
<path d="M187.936 133.093C187.875 133.093 187.814 133.093 187.752 133.093C180.914 130.614 174.121 127.814 167.466 124.785C148.051 115.927 129.508 104.774 112.342 91.601C112.159 91.4634 112.113 91.188 112.251 91.0044C112.388 90.8208 112.664 90.7749 112.847 90.9126C129.967 104.039 148.464 115.193 167.833 124.005C174.442 126.988 181.235 129.788 188.074 132.266C188.303 132.358 188.395 132.588 188.349 132.817C188.257 133.001 188.12 133.093 187.936 133.093Z" fill="black"/>
<path d="M81.5424 178.644C81.4812 178.644 81.42 178.644 81.3588 178.644C81.1752 178.552 81.0375 178.277 81.1293 178.047C87.7845 161.157 93.0627 143.578 96.7805 125.816C99.1671 114.617 101.003 103.096 102.151 91.6677C102.196 91.4382 102.38 91.2546 102.655 91.3005C102.885 91.3005 103.068 91.53 103.023 91.7595C101.829 103.234 100.039 114.754 97.6525 125.999C93.8889 143.808 88.6107 161.432 81.9555 178.369C81.8637 178.552 81.726 178.644 81.5424 178.644Z" fill="black"/>
<path d="M133.234 165.307C133.142 165.307 133.051 165.262 132.959 165.17C124.009 157.367 115.288 149.06 107.072 140.477C96.6535 129.599 86.6937 117.987 77.5601 106.007C77.4224 105.824 77.4224 105.549 77.606 105.411C77.8354 105.227 78.1108 105.273 78.2485 105.457C87.3822 117.436 97.2961 129.002 107.715 139.88C115.885 148.417 124.605 156.725 133.509 164.527C133.693 164.711 133.739 164.986 133.555 165.17C133.464 165.262 133.372 165.307 133.234 165.307Z" fill="black"/>
<path d="M117.205 190.854C117.572 191.986 117.94 193.133 118.307 194.296C117.113 194.724 115.92 195.153 114.727 195.581C114.451 194.51 114.161 193.439 113.855 192.368C114.956 191.879 116.073 191.374 117.205 190.854Z" fill="#522211"/>
<path d="M110.504 193.424C110.841 194.495 111.178 195.581 111.514 196.683C110.168 196.897 108.821 197.111 107.475 197.325C107.292 196.377 107.123 195.428 106.97 194.48C108.164 194.113 109.342 193.761 110.504 193.424Z" fill="#522211"/>
<path d="M104.262 195.167C104.323 195.993 104.369 196.835 104.4 197.692C103.115 197.753 101.814 197.799 100.499 197.829C100.437 197.034 100.361 196.238 100.269 195.443C101.616 195.351 102.947 195.259 104.262 195.167Z" fill="#522211"/>
<path d="M97.7448 195.581C97.6224 196.315 97.5001 197.05 97.3777 197.784C96.1843 197.57 94.991 197.371 93.7976 197.187C93.8588 196.484 93.9047 195.78 93.9353 195.076C95.2205 195.26 96.4903 195.428 97.7448 195.581Z" fill="#522211"/>
<path d="M159.89 207.01C159.37 206.428 158.85 205.847 158.33 205.266C158.743 204.715 158.743 204.394 158.697 204.21C158.376 203.613 156.723 204.256 155.714 203.338C155.025 202.741 155.392 202.191 154.842 201.594C153.511 200.309 149.701 201.869 147.865 202.925C146.534 203.659 145.524 204.485 144.928 205.036C144.331 203.659 143.046 201.181 140.43 200.171C139.007 199.574 136.85 199.345 136.528 200.033C136.299 200.446 136.987 200.905 136.804 201.318C136.391 202.328 131.985 200.263 128.772 201.823C126.706 202.833 126.936 204.394 125.421 205.816C123.126 207.928 119.317 207.102 103.023 203.522C97.3317 202.236 90.6765 200.446 88.7947 203.063C88.2439 203.797 87.9226 205.174 86.6375 205.679C85.3064 206.184 84.4344 205.312 83.1493 205.679C82.3231 205.908 81.3133 206.689 80.5331 209.029C107.001 208.356 133.453 207.683 159.89 207.01Z" fill="#D9EDFF"/>
<path d="M134.692 199.344C134.417 199.757 133.178 199.528 132.397 198.931C132.03 198.656 131.342 198.059 131.525 197.692C131.709 197.279 132.994 197.187 133.82 197.784C134.463 198.197 134.922 199.023 134.692 199.344Z" fill="#D9EDFF"/>
<path d="M129.644 199.803C129.598 200.125 128.634 200.538 127.9 200.171C127.165 199.849 126.798 198.977 127.028 198.702C127.349 198.289 129.69 199.253 129.644 199.803Z" fill="#D9EDFF"/>
<path d="M151.904 160.562C148.921 160.699 145.432 161.158 141.577 162.214C132.856 164.555 126.568 168.915 122.851 172.036C121.902 170.323 120.954 168.609 120.005 166.896C122.392 164.463 125.696 161.663 130.011 159.139C138.41 154.32 146.442 153.218 151.17 152.943C151.414 155.482 151.659 158.022 151.904 160.562Z" fill="#522211"/>
<path d="M162.506 153.906C162.17 156.201 161.833 158.496 161.497 160.79C162.92 161.433 164.755 162.397 166.637 163.957C169.253 166.16 170.86 168.547 171.732 170.154C172.436 168.195 173.124 166.237 173.797 164.279C173.155 162.764 171.778 160.194 169.116 157.853C166.591 155.558 164.021 154.457 162.506 153.906Z" fill="#522211"/>
<path d="M84.0669 179.104C84.0669 181.307 82.7359 183.097 81.0836 183.097C79.4772 183.097 78.1002 181.307 78.1002 179.104C78.1002 176.901 79.4772 175.111 81.0836 175.111C82.7359 175.111 84.0669 176.901 84.0669 179.104Z" fill="#522211"/>
<path d="M122.438 173.459C121.795 174.974 120.923 176.396 120.005 177.773C119.547 178.462 118.996 179.104 118.491 179.747C117.94 180.359 117.374 180.971 116.793 181.583C116.211 182.164 115.584 182.715 114.911 183.235C114.268 183.725 113.595 184.199 112.891 184.658C112.203 185.117 111.514 185.53 110.78 185.943C110.092 186.356 109.311 186.723 108.623 187.137C107.888 187.458 107.108 187.825 106.374 188.146C105.594 188.513 104.859 188.789 104.079 189.064C103.299 189.386 102.473 189.615 101.692 189.844C100.866 190.028 100.086 190.212 99.2597 190.349C96.0009 190.9 92.6045 190.992 89.2999 190.395H89.1622L89.0704 190.258C88.1065 189.018 87.1426 187.825 86.2247 186.586C85.2608 185.347 84.3429 184.107 83.4708 182.822L83.5167 182.776C84.6183 183.878 85.628 185.071 86.6837 186.219C87.6934 187.366 88.7032 188.559 89.7129 189.707L89.4375 189.569C90.2331 189.661 91.044 189.737 91.8701 189.799C92.6504 189.845 93.4766 189.89 94.3027 189.89C95.083 189.89 95.9091 189.845 96.7353 189.799C97.5156 189.753 98.3417 189.661 99.122 189.569C99.9482 189.447 100.759 189.309 101.555 189.156C102.335 188.972 103.115 188.835 103.895 188.605C104.676 188.376 105.456 188.146 106.236 187.871C107.016 187.55 107.751 187.228 108.485 186.861C109.219 186.494 109.954 186.127 110.596 185.668C111.331 185.255 111.973 184.75 112.616 184.245C113.258 183.755 113.87 183.235 114.452 182.684C115.064 182.134 115.66 181.583 116.242 181.032C116.823 180.451 117.389 179.854 117.94 179.242C118.491 178.645 118.996 178.049 119.501 177.406C120.51 176.121 121.474 174.79 122.346 173.413L122.438 173.459Z" fill="#85371C"/>
<path d="M156.035 182.316L146.993 180.205L146.947 179.975C145.57 176.212 143.78 172.632 141.623 169.327C140.016 166.849 138.134 164.554 136.115 162.396L136.757 161.8C138.823 163.957 140.705 166.344 142.311 168.822C144.514 172.127 146.304 175.707 147.681 179.47L156.08 181.398L162.047 180.572C164.25 176.992 166.132 173.228 167.693 169.327C168.381 167.629 169.024 165.885 169.574 164.141L170.401 164.416C169.85 166.16 169.207 167.95 168.519 169.648C166.912 173.641 164.939 177.543 162.69 181.215L162.552 181.398L156.035 182.316Z" fill="#85371C"/>
<path d="M147.498 154.778C147.651 156.339 147.819 157.915 148.002 159.506C147.222 159.506 146.258 159.598 145.157 159.827C144.285 160.057 143.55 160.332 142.908 160.562C142.541 159.001 142.173 157.425 141.806 155.834C142.449 155.559 143.321 155.192 144.377 154.962C145.616 154.733 146.717 154.687 147.498 154.778Z" fill="#85371C"/>
<path d="M139.925 156.66C140.353 158.037 140.797 159.414 141.256 160.791C140.567 160.837 139.741 161.021 138.823 161.296C137.905 161.617 137.171 161.985 136.574 162.306C135.87 161.112 135.182 159.904 134.509 158.68C135.059 158.221 135.977 157.532 137.308 157.073C138.364 156.752 139.282 156.66 139.925 156.66Z" fill="#85371C"/>
<path d="M168.111 158.067C167.469 159.352 166.826 160.622 166.184 161.877C165.052 161.479 163.919 161.081 162.787 160.684C163.032 159.092 163.292 157.501 163.568 155.91C164.348 156.048 165.404 156.369 166.505 156.966C167.148 157.333 167.698 157.7 168.111 158.067Z" fill="#85371C"/>
<path d="M159.064 162.765C169.161 152.3 179.259 141.835 189.356 131.37C191.743 131.784 193.809 130.131 193.992 128.112C194.13 126.138 192.432 124.302 190.825 124.302C189.035 124.256 187.062 126.414 187.383 129.397C176.582 138.27 165.765 147.129 154.933 155.972C154.795 156.247 153.877 157.899 154.52 159.689C155.117 161.479 156.953 162.719 159.064 162.765Z" fill="#B05D3E"/>
<path d="M193.304 128.066C193.579 127.882 193.304 126.964 193.028 126.414C192.478 125.266 191.284 124.394 190.963 124.624C190.733 124.807 191.101 125.817 191.422 126.368C191.973 127.377 193.028 128.249 193.304 128.066Z" fill="#7D422C"/>
<path d="M157.916 166.436C157.687 166.436 157.457 166.252 157.457 166.023V162.259L184.858 134.675C184.996 134.491 185.271 134.491 185.455 134.675C185.639 134.812 185.639 135.088 185.455 135.271L158.329 162.627V166.023C158.329 166.252 158.146 166.436 157.916 166.436Z" fill="#7D422C"/>
<path d="M157.916 166.436C157.687 166.436 157.457 166.252 157.457 166.023V162.259L184.858 134.675C184.996 134.491 185.271 134.491 185.455 134.675C185.639 134.812 185.639 135.088 185.455 135.271L158.329 162.627V166.023C158.329 166.252 158.146 166.436 157.916 166.436Z" fill="#7D422C"/>
<path d="M189.265 131.874C189.127 131.691 188.898 131.599 188.255 130.956C187.429 130.13 187.337 129.809 187.062 129.625C186.557 129.304 185.272 129.763 182.013 133.113C181.967 133.389 181.875 134.812 182.931 136.005C183.803 137.015 184.951 137.244 185.272 137.29C189.036 133.802 189.586 132.425 189.265 131.874Z" fill="black"/>
<path d="M144.01 125.909C144.148 126.23 142.495 127.791 140.522 127.836C137.263 127.882 134.739 123.843 134.83 123.752C134.922 123.66 136.207 125.725 138.778 126.368C141.531 127.056 143.872 125.587 144.01 125.909Z" fill="white"/>
<path d="M130.47 91.6226C130.699 92.1733 131.388 93.8715 133.086 94.6977C135.473 95.8452 138.364 94.56 138.318 94.101C138.318 93.7798 136.758 93.8715 133.82 92.9536C132.398 92.4946 131.25 91.9897 130.47 91.6226Z" fill="white"/>
<path d="M129.185 127.239C129.277 127.652 126.201 129.121 122.667 129.121C116.701 129.121 112.157 124.99 112.34 124.623C112.478 124.301 115.415 126.367 120.74 127.101C125.696 127.744 129.093 126.826 129.185 127.239Z" fill="white"/>
<path d="M125.191 81.7551C124.335 81.6633 123.478 81.5868 122.621 81.5256C121.948 81.495 121.29 81.4644 120.647 81.4338C120.647 78.9859 120.647 76.5227 120.647 74.0442C121.061 73.9984 121.703 73.9983 122.483 74.2278C123.126 74.4114 123.585 74.7327 123.86 74.9163C124.289 77.2112 124.732 79.4908 125.191 81.7551Z" fill="#85462F"/>
<path d="M117.114 73.6762C117.481 76.2158 117.863 78.7402 118.261 81.2493C117.374 81.3717 116.486 81.4941 115.599 81.6165C114.742 81.7695 113.886 81.9072 113.029 82.0296C113.182 79.3675 113.32 76.7054 113.442 74.0434C113.809 73.9057 114.36 73.6762 115.048 73.5844C115.92 73.4467 116.655 73.5844 117.114 73.6762Z" fill="#85462F"/>
<path d="M117.526 83.4063C117.756 83.3604 118.031 84.0947 118.261 85.0127C119.225 84.875 120.556 84.6455 122.162 84.2324C124.136 83.7735 125.283 83.4522 125.283 83.2227C125.237 82.7178 120.969 82.5342 117.159 82.7637C112.982 83.0391 107.888 83.8652 107.888 84.4619C107.934 84.7832 109.311 85.1963 115.92 85.3799C116.287 87.996 116.517 88.8222 116.654 88.8222C117.067 88.8222 116.93 83.4522 117.526 83.4063Z" fill="#85462F"/>
</svg>
